<svg width="42" height="28" viewBox="0 0 42 28" fill="none" xmlns="http://www.w3.org/2000/svg">
<path d="M28 14C28 10.5076 26.6947 7.14136 24.3403 4.56191C21.9859 1.98247 18.7525 0.376121 15.2746 0.05817C11.7967 -0.259781 8.3256 0.733622 5.54251 2.84339C2.75943 4.95317 0.865381 8.02695 0.232119 11.4614C-0.401142 14.8959 0.272118 18.4431 2.11975 21.4067C3.96739 24.3703 6.85597 26.5363 10.2185 27.4796C13.5811 28.4229 17.1748 28.0754 20.2943 26.5052C23.4138 24.9351 25.8339 22.2557 27.0794 18.993L14 14H28Z" fill="#F7931B"/>
<path d="M14 14C14 17.0633 15.0048 20.0421 16.8602 22.4796C18.7156 24.9171 21.3193 26.6788 24.272 27.4945C27.2247 28.3102 30.3635 28.135 33.2071 26.9956C36.0507 25.8562 38.442 23.8157 40.0146 21.1868C41.5871 18.5579 42.254 15.4857 41.913 12.4414C41.5719 9.39716 40.2418 6.54875 38.1266 4.33295C36.0113 2.11716 33.2277 0.656302 30.2025 0.174369C27.1773 -0.307564 24.0776 0.216031 21.3785 1.66487L28 14H14Z" fill="#5250FA"/>
<path d="M28 14C28 10.9367 26.9953 7.95789 25.1398 5.52039C23.2844 3.08289 20.6807 1.32122 17.728 0.505507C14.7753 -0.310212 11.6365 -0.134953 8.79293 1.00441C5.94936 2.14377 3.55798 4.18434 1.98545 6.81325C0.412915 9.44215 -0.253964 12.5143 0.0870642 15.5586C0.428092 18.6029 1.7582 21.4513 3.87345 23.6671C5.98869 25.8829 8.77232 27.3437 11.7975 27.8256C14.8227 28.3076 17.9224 27.784 20.6215 26.3351L14 14H28Z" fill="#F7931B"/>
<path d="M14 14C14 16.586 14.7163 19.1214 16.0693 21.3251C17.4223 23.5289 19.3593 25.3148 21.6654 26.4849C23.9715 27.655 26.5567 28.1635 29.1341 27.954C31.7116 27.7445 34.1807 26.8252 36.2676 25.2981C38.3545 23.771 39.9776 21.6957 40.957 19.3024C41.9364 16.9091 42.2338 14.2913 41.8162 11.7392C41.3986 9.1872 40.2824 6.80071 38.5912 4.84438C36.9001 2.88806 34.7001 1.43836 32.2353 0.656042L28 14H14Z" fill="#5250FA"/>
</svg>
