<svg width="171" height="44" viewBox="0 0 171 44" fill="none" xmlns="http://www.w3.org/2000/svg">
<path d="M68.868 31H66.096L66.152 29.04L60.608 23.468L62.484 21.312H66.096V14.088H59.544V31H56.772V16.468L59.208 14.088H56.436V11.652H66.432L68.868 14.088V20.976L66.432 23.412H64.164V23.776L68.868 28.424V31ZM82.3224 14.088H77.9824V31H75.2104V14.088H70.8984V11.652H82.3224V14.088ZM98.5681 30.972H93.2201L88.5161 14.116H86.1361L87.8721 15.768V30.972H85.1001V11.624H90.4761L95.1241 28.536H97.5321L95.7961 26.772V11.624H98.5681V30.972ZM120.368 28.564L117.932 31H111.016L108.608 28.564V14.088L111.016 11.652H117.932L120.368 14.088V16.104L117.596 18.904V14.088H111.38V28.564H117.596V26.52L120.368 23.748V28.564ZM136.598 31H133.826L133.882 29.04L128.338 23.468L130.214 21.312H133.826V14.088H127.274V31H124.502V16.468L126.938 14.088H124.166V11.652H134.162L136.598 14.088V20.976L134.162 23.412H131.894V23.776L136.598 28.424V31ZM152.629 21.312L150.193 23.748H147.953V31H145.181V23.748H142.941L140.533 21.312V11.652H143.305V21.312H149.857V11.652H152.629V21.312ZM169.411 21.312L166.975 23.748H160.087V31H157.315V16.468L159.751 14.088H156.979V11.652H166.975L169.411 14.088V21.312ZM166.639 21.312V14.088H160.087V23.412L162.131 21.312H166.639Z" fill="black"/>
<path d="M28 22C28 18.5076 26.6947 15.1414 24.3403 12.5619C21.9859 9.98247 18.7525 8.37612 15.2746 8.05817C11.7967 7.74022 8.3256 8.73362 5.54251 10.8434C2.75943 12.9532 0.865381 16.027 0.232119 19.4614C-0.401142 22.8959 0.272118 26.4431 2.11975 29.4067C3.96739 32.3703 6.85597 34.5363 10.2185 35.4796C13.5811 36.4229 17.1748 36.0754 20.2943 34.5052C23.4138 32.9351 25.8339 30.2557 27.0794 26.993L14 22H28Z" fill="#F7931B"/>
<path d="M14 22C14 25.0633 15.0048 28.0421 16.8602 30.4796C18.7156 32.9171 21.3193 34.6788 24.272 35.4945C27.2247 36.3102 30.3635 36.135 33.2071 34.9956C36.0507 33.8562 38.442 31.8157 40.0146 29.1868C41.5871 26.5579 42.254 23.4857 41.913 20.4414C41.5719 17.3972 40.2418 14.5487 38.1266 12.333C36.0113 10.1172 33.2277 8.6563 30.2025 8.17437C27.1773 7.69244 24.0776 8.21603 21.3785 9.66487L28 22H14Z" fill="#5250FA"/>
<path d="M28 22C28 18.9367 26.9953 15.9579 25.1398 13.5204C23.2844 11.0829 20.6807 9.32122 17.728 8.50551C14.7753 7.68979 11.6365 7.86505 8.79293 9.00441C5.94936 10.1438 3.55798 12.1843 1.98545 14.8132C0.412915 17.4422 -0.253964 20.5143 0.0870642 23.5586C0.428092 26.6029 1.7582 29.4513 3.87345 31.6671C5.98869 33.8829 8.77231 35.3437 11.7975 35.8256C14.8227 36.3076 17.9224 35.784 20.6215 34.3351L14 22H28Z" fill="#F7931B"/>
<path d="M14 22C14 24.586 14.7163 27.1214 16.0693 29.3251C17.4223 31.5289 19.3593 33.3148 21.6654 34.4849C23.9715 35.655 26.5567 36.1635 29.1341 35.954C31.7116 35.7445 34.1807 34.8252 36.2676 33.2981C38.3545 31.771 39.9776 29.6957 40.957 27.3024C41.9364 24.9091 42.2338 22.2913 41.8162 19.7392C41.3986 17.1872 40.2824 14.8007 38.5912 12.8444C36.9001 10.8881 34.7001 9.43836 32.2353 8.65604L28 22H14Z" fill="#5250FA"/>
</svg>
