<svg width="114" height="20" viewBox="0 0 114 20" fill="none" xmlns="http://www.w3.org/2000/svg">
<path d="M12.868 20H10.096L10.152 18.04L4.608 12.468L6.484 10.312H10.096V3.088H3.544V20H0.772V5.468L3.208 3.088H0.436V0.651999H10.432L12.868 3.088V9.976L10.432 12.412H8.164V12.776L12.868 17.424V20ZM26.3224 3.088H21.9824V20H19.2104V3.088H14.8984V0.651999H26.3224V3.088ZM42.5681 19.972H37.2201L32.5161 3.116H30.1361L31.8721 4.768V19.972H29.1001V0.623999H34.4761L39.1241 17.536H41.5321L39.7961 15.772V0.623999H42.5681V19.972ZM64.3679 17.564L61.9319 20H55.0159L52.6079 17.564V3.088L55.0159 0.651999H61.9319L64.3679 3.088V5.104L61.5959 7.904V3.088H55.3799V17.564H61.5959V15.52L64.3679 12.748V17.564ZM80.5985 20H77.8265L77.8825 18.04L72.3385 12.468L74.2145 10.312H77.8265V3.088H71.2745V20H68.5025V5.468L70.9385 3.088H68.1665V0.651999H78.1625L80.5985 3.088V9.976L78.1625 12.412H75.8945V12.776L80.5985 17.424V20ZM96.6289 10.312L94.1929 12.748H91.9529V20H89.1809V12.748H86.9409L84.5329 10.312V0.651999H87.3049V10.312H93.8569V0.651999H96.6289V10.312ZM113.411 10.312L110.975 12.748H104.087V20H101.315V5.468L103.751 3.088H100.979V0.651999H110.975L113.411 3.088V10.312ZM110.639 10.312V3.088H104.087V12.412L106.131 10.312H110.639Z" fill="black"/>
</svg>
