<svg width="18" height="18" viewBox="0 0 18 18" fill="current" xmlns="http://www.w3.org/2000/svg">
<path d="M13.125 9C12.4288 9 11.7611 9.27656 11.2688 9.76884C10.7766 10.2611 10.5 10.9288 10.5 11.625C10.5 12.3212 10.7766 12.9889 11.2688 13.4812C11.7611 13.9734 12.4288 14.25 13.125 14.25H18V18H0V5.25H18V9H13.125ZM13.875 12.75H13.125C12.8266 12.75 12.5405 12.6315 12.3295 12.4205C12.1185 12.2095 12 11.9234 12 11.625C12 11.3266 12.1185 11.0405 12.3295 10.8295C12.5405 10.6185 12.8266 10.5 13.125 10.5H13.875C14.1734 10.5 14.4595 10.6185 14.6705 10.8295C14.8815 11.0405 15 11.3266 15 11.625C15 11.9234 14.8815 12.2095 14.6705 12.4205C14.4595 12.6315 14.1734 12.75 13.875 12.75ZM12 0L15 3.75H6L12 0Z" fill="#565656"/>
</svg>
